<svg xmlns="http://www.w3.org/2000/svg" viewBox="0 0 117.569 45.797">
  <defs>
    <style>
      .cls-1 {
        fill: #fff;
      }
    </style>
  </defs>
  <g id="Group_46" data-name="Group 46" transform="translate(-18.219 -11.279)">
    <path id="Path_2" data-name="Path 2" class="cls-1" d="M-68.336,13.556q-1.042.067-.231-1.111L-67.4,10.8a1.5,1.5,0,0,1,1.157-.822L-25.1,5.244q1.49.2,0,1.133Z" transform="matrix(0.999, -0.035, 0.035, 0.999, 86.916, 40.378)"/>
    <path id="Path_3" data-name="Path 3" class="cls-1" d="M11.722-16.456a6.192,6.192,0,0,0-4.156,2.111,18.739,18.739,0,0,0-3.244,4.133A16.048,16.048,0,0,0,2.656-5.656a7.721,7.721,0,0,0,.111,4.233Q3.4.311,5.067-.678A13.838,13.838,0,0,0,7.944-2.911a27.76,27.76,0,0,0,2.589-3.167,18.368,18.368,0,0,0,2.4-6.167Q13.778-16.489,11.722-16.456Zm.478,11.1L9.8-2.333A13.242,13.242,0,0,1,5.844.456,4.546,4.546,0,0,1,2.6.389,3.666,3.666,0,0,1,.367-2.378,10.083,10.083,0,0,1,.189-6.633a17.767,17.767,0,0,1,1.167-3.989,13.631,13.631,0,0,1,2.011-3.333,14.061,14.061,0,0,1,2.8-2.578,7.732,7.732,0,0,1,3.6-1.344,7.686,7.686,0,0,1,4.189.789,3.1,3.1,0,0,1,2.5-.489q1.256.311.656,2Q15.6-8.244,15.078-4.3t-.6,5.211q-.078,1.267-.878,1.2Q11.378,2,11.578.389t.356-2.767Q12.089-3.533,12.2-5.356ZM31.733-8.022A35.068,35.068,0,0,1,25.578,2.311Q23.622,2.644,22.822-.4A23.45,23.45,0,0,1,22-7.844a43.383,43.383,0,0,1,.778-7.067q.511-3.133,1.311-3.089,2,.111,1.922,1.333T25.5-12.8a60.563,60.563,0,0,0-.433,8.689L25.622.511q.8-1.244,1.522-2.578t1.4-2.644q.678-1.311,1.522-3.344a72.891,72.891,0,0,0,2.422-8.3q.311-1.689.644-1.744a3.709,3.709,0,0,1,1.078.067q.744.122.256,2.478Zm9.822,4.6q.044,1.911,1.467,1.889a6.229,6.229,0,0,0,4.144-2.022,18.319,18.319,0,0,0,3.256-3.989,15.242,15.242,0,0,0,1.689-4.411,7.2,7.2,0,0,0-.1-4.1q-.633-1.678-2.3-.722a13.836,13.836,0,0,0-2.878,2.156,28.161,28.161,0,0,0-2.6,3.044A11,11,0,0,0,42.311-7.6,31.069,31.069,0,0,0,41.556-3.422ZM53.244-6.889a17.857,17.857,0,0,1-4.311,5.122A8.568,8.568,0,0,1,44.956-.156a8.042,8.042,0,0,1-4.178-.733l-2,10.333Q38.067,14,37.044,14.022q-2.489.378-1.644-1.911,4.733-28.978,5-29.656t1.533-.389q2.133.311,1.533,1.933l-.556,3.289,2.067-2.467a13.155,13.155,0,0,1,3.956-2.7,4.67,4.67,0,0,1,3.244.078,3.6,3.6,0,0,1,2.233,2.689A9.31,9.31,0,0,1,54.578-11,18.105,18.105,0,0,1,53.244-6.889Zm16.589-9.567a6.192,6.192,0,0,0-4.156,2.111,18.739,18.739,0,0,0-3.244,4.133,16.048,16.048,0,0,0-1.667,4.556,7.721,7.721,0,0,0,.111,4.233q.633,1.733,2.3.744a13.838,13.838,0,0,0,2.878-2.233,27.761,27.761,0,0,0,2.589-3.167,18.368,18.368,0,0,0,2.4-6.167Q71.889-16.489,69.833-16.456Zm.478,11.1-2.4,3.022A13.242,13.242,0,0,1,63.956.456,4.546,4.546,0,0,1,60.711.389a3.666,3.666,0,0,1-2.233-2.767A10.083,10.083,0,0,1,58.3-6.633a17.767,17.767,0,0,1,1.167-3.989,13.631,13.631,0,0,1,2.011-3.333,14.061,14.061,0,0,1,2.8-2.578,7.732,7.732,0,0,1,3.6-1.344,7.686,7.686,0,0,1,4.189.789,3.1,3.1,0,0,1,2.5-.489q1.256.311.656,2Q73.711-8.244,73.189-4.3t-.6,5.211q-.078,1.267-.878,1.2Q69.489,2,69.689.389t.356-2.767Q70.2-3.533,70.311-5.356Zm19.356,3.6Q87.644,1.378,85.6,2.167a3.159,3.159,0,0,1-3.589-.7,5.378,5.378,0,0,1-1.633-3.822,68.9,68.9,0,0,1,.867-9.4q.733-6.044,1.667-6.156a5.961,5.961,0,0,1,2.133.189q1.2.3.6,1.944a70.189,70.189,0,0,0-1.811,8.244,48.111,48.111,0,0,0-.656,5.622A1.641,1.641,0,0,0,84.522-.056q1.367.3,5.567-3.878Q91.644-17.8,92.578-17.911a5.961,5.961,0,0,1,2.133.189q1.2.3.6,1.944L92.689-.489Q92.378,2.2,91.578,2.133q-2.222.111-2.133-1.444Zm12.867.378q-.311,3.8-1.111,3.733Q99.2,2.244,99.289.689t2.389-16.833q2.3-15.278,3.3-15.5a3.369,3.369,0,0,1,2.033.2q1.056.422.678,1.889-.022.067-.044.156Z" transform="translate(28 43)"/>
  </g>
</svg>
